<svg width="91" height="25" viewBox="0 0 91 25" fill="none" xmlns="http://www.w3.org/2000/svg">
<path d="M4.575 20.625C3.10833 20.625 2.08333 20.2667 1.5 19.55C0.916667 18.8333 0.625 17.9333 0.625 16.85C0.625 15.75 0.808333 14.25 1.175 12.35C1.54167 10.45 1.725 9.075 1.725 8.225C1.725 7.375 1.55 6.70833 1.2 6.225C2.75 5.40833 4.05833 5 5.125 5C5.80833 5 6.3 5.14167 6.6 5.425C6.91667 5.69167 7.075 6.13333 7.075 6.75C7.075 7.36667 6.81667 8.88333 6.3 11.3C5.8 13.7 5.55 15.1833 5.55 15.75C5.55 16.3167 5.70833 16.7667 6.025 17.1C6.34167 17.4167 6.75833 17.575 7.275 17.575C7.79167 17.575 8.34167 17.375 8.925 16.975C9.50833 16.5583 9.98333 15.975 10.35 15.225C10.5833 13.875 11.0417 11.7417 11.725 8.825L10.225 6.825C11.9083 5.60833 13.5083 5 15.025 5C15.775 5 16.3083 5.14167 16.625 5.425C16.9583 5.69167 17.125 6.10833 17.125 6.675C17.125 7.225 16.8167 8.81667 16.2 11.45C15.6 14.0833 15.3 15.9583 15.3 17.075C15.3 18.175 15.5583 18.95 16.075 19.4C15.1417 20.2167 14.1583 20.625 13.125 20.625C12.1083 20.625 11.375 20.4 10.925 19.95C10.475 19.5 10.25 18.9083 10.25 18.175L10 18.05C9.45 18.85 8.68333 19.4833 7.7 19.95C6.73333 20.4 5.69167 20.625 4.575 20.625ZM31.5418 6.9C32.4751 6.9 33.2751 7.275 33.9418 8.025C34.6251 8.775 34.9668 9.86667 34.9668 11.3C34.9668 12.7167 34.7168 14.0333 34.2168 15.25C33.7168 16.45 33.0585 17.4333 32.2418 18.2C31.4251 18.9667 30.5001 19.5667 29.4668 20C28.4335 20.4167 27.3751 20.625 26.2918 20.625C24.1085 20.625 22.3835 20.025 21.1168 18.825C19.8501 17.625 19.2168 16.0333 19.2168 14.05C19.2168 11.3667 20.0751 9.19167 21.7918 7.525C23.5251 5.84167 25.7251 5 28.3918 5C28.9918 5 29.5918 5.06667 30.1918 5.2C30.3751 5.75 30.4751 6.375 30.4918 7.075C30.8418 6.95833 31.1918 6.9 31.5418 6.9ZM28.4668 10.375C28.4668 9.90833 28.5751 9.38333 28.7918 8.8C29.0251 8.21667 29.3918 7.75 29.8918 7.4C27.6918 7.86667 26.1751 8.75833 25.3418 10.075C24.6251 11.2083 24.2668 12.375 24.2668 13.575C24.2668 14.775 24.5085 15.7417 24.9918 16.475C25.4918 17.1917 26.1251 17.55 26.8918 17.55C28.5918 17.55 29.7918 16.4417 30.4918 14.225C29.1418 13.3917 28.4668 12.1083 28.4668 10.375ZM39.5629 4.45L38.1629 2.45C40.2462 1.23333 41.8879 0.624999 43.0879 0.624999C43.7712 0.624999 44.2546 0.766666 44.5379 1.05C44.8212 1.31667 44.9629 1.775 44.9629 2.425C44.9629 3.05833 44.8546 3.95 44.6379 5.1C44.4379 6.25 44.1629 7.60833 43.8129 9.175C43.4796 10.7417 43.2379 12 43.0879 12.95L44.6629 11.55C44.8129 11.4167 45.0546 11.2083 45.3879 10.925C45.7379 10.625 45.9796 10.4083 46.1129 10.275C46.2629 10.1417 46.4629 9.95833 46.7129 9.725C46.9629 9.475 47.1462 9.26667 47.2629 9.1C47.3796 8.93333 47.5129 8.74167 47.6629 8.525C47.8962 8.15833 48.0129 7.75 48.0129 7.3C48.0129 6.83333 47.9462 6.425 47.8129 6.075C48.9962 5.35833 50.1129 5 51.1629 5C51.8629 5 52.4212 5.225 52.8379 5.675C53.2546 6.10833 53.4629 6.74167 53.4629 7.575C53.4629 8.40833 53.0796 9.25 52.3129 10.1C51.5629 10.9333 50.6296 11.6667 49.5129 12.3C50.0296 14.0167 50.6962 15.5917 51.5129 17.025C52.3296 18.4583 53.0129 19.3167 53.5629 19.6C52.8962 20.2833 51.8629 20.625 50.4629 20.625C49.4296 20.625 48.5546 20.275 47.8379 19.575C47.1379 18.875 46.5129 17.725 45.9629 16.125L45.3379 14.35L42.7629 15.625C42.7462 15.8083 42.7379 16.0833 42.7379 16.45C42.7379 17.8333 42.9962 18.8167 43.5129 19.4C42.3462 20.2167 41.2879 20.625 40.3379 20.625C39.3879 20.625 38.6879 20.3167 38.2379 19.7C37.8046 19.0667 37.5879 18.2 37.5879 17.1C37.5879 16 37.8962 13.75 38.5129 10.35C39.1296 6.95 39.4796 4.98333 39.5629 4.45Z" fill="#002A69"/>
<path d="M58.2037 24.975C57.1704 24.975 56.4454 24.7167 56.0287 24.2C55.6287 23.7 55.4287 22.9667 55.4287 22C55.4287 21.05 55.6287 19.125 56.0287 16.225C56.4454 13.325 56.8454 10.85 57.2287 8.8L55.8287 6.8C56.862 6.2 57.7537 5.75 58.5037 5.45C59.2537 5.13333 59.9954 4.975 60.7287 4.975C61.9287 4.975 62.5287 5.76667 62.5287 7.35C62.5287 7.56667 62.4954 8.00833 62.4287 8.675L62.6787 8.8C63.162 7.6 63.862 6.66667 64.7787 6C65.6954 5.31667 66.7704 4.975 68.0037 4.975C69.2537 4.975 70.2454 5.54167 70.9787 6.675C71.712 7.79167 72.0787 9.18333 72.0787 10.85C72.0787 13.0833 71.2954 15.1167 69.7287 16.95C68.962 17.85 67.937 18.5833 66.6537 19.15C65.3704 19.7 63.937 19.975 62.3537 19.975C61.8704 19.975 61.237 19.9333 60.4537 19.85C60.4037 20.4333 60.3787 20.975 60.3787 21.475C60.3787 22.5417 60.637 23.3 61.1537 23.75C60.2204 24.5667 59.237 24.975 58.2037 24.975ZM61.4787 14.625L60.9037 17.525C62.9204 17.475 64.5287 16.8167 65.7287 15.55C66.9454 14.2667 67.5537 12.8667 67.5537 11.35C67.5537 10.5667 67.3954 9.94167 67.0787 9.475C66.7787 8.99167 66.337 8.75 65.7537 8.75C63.687 8.75 62.262 10.7083 61.4787 14.625ZM82.8693 23.375C82.8693 22.875 82.9777 22 83.1943 20.75C83.4277 19.5 83.5777 18.65 83.6443 18.2L83.3943 18.075C82.7777 18.8917 82.0527 19.525 81.2193 19.975C80.386 20.4083 79.5527 20.625 78.7193 20.625C77.436 20.625 76.361 20.125 75.4943 19.125C74.6277 18.1083 74.1943 16.65 74.1943 14.75C74.1943 12.2333 74.911 10.0167 76.3443 8.1C77.0443 7.16667 77.9693 6.41667 79.1193 5.85C80.286 5.28333 81.511 5 82.7943 5C84.0943 5 85.2693 5.28333 86.3193 5.85C86.936 5.7 87.5693 5.625 88.2193 5.625C89.7193 5.625 90.4693 6.44167 90.4693 8.075C90.4693 8.34167 90.2943 9.20833 89.9443 10.675C88.9277 15.075 88.4193 18.5667 88.4193 21.15L89.6693 23.15C88.036 24.3667 86.4943 24.975 85.0443 24.975C84.2777 24.975 83.7193 24.8333 83.3693 24.55C83.036 24.2667 82.8693 23.875 82.8693 23.375ZM81.2693 16.875C82.3527 16.875 83.2777 16.325 84.0443 15.225C84.4277 12.6917 84.8443 10.1167 85.2943 7.5C84.8443 7.4 84.436 7.35 84.0693 7.35C82.9527 7.35 81.9943 7.66667 81.1943 8.3C79.6777 9.45 78.9193 11.1 78.9193 13.25C78.9193 14.2667 79.1277 15.125 79.5443 15.825C79.961 16.525 80.536 16.875 81.2693 16.875Z" fill="#70142E"/>
</svg>
