<svg width="91" height="25" viewBox="0 0 91 25" fill="none" xmlns="http://www.w3.org/2000/svg">
<mask id="path-1-outside-1_26_28" maskUnits="userSpaceOnUse" x="-2" y="-2" width="95" height="29" fill="black">
<rect fill="white" x="-2" y="-2" width="95" height="29"/>
<path d="M4.575 20.625C3.10833 20.625 2.08333 20.2667 1.5 19.55C0.916667 18.8333 0.625 17.9333 0.625 16.85C0.625 15.75 0.808333 14.25 1.175 12.35C1.54167 10.45 1.725 9.075 1.725 8.225C1.725 7.375 1.55 6.70833 1.2 6.225C2.75 5.40833 4.05833 5 5.125 5C5.80833 5 6.3 5.14167 6.6 5.425C6.91667 5.69167 7.075 6.13333 7.075 6.75C7.075 7.36667 6.81667 8.88333 6.3 11.3C5.8 13.7 5.55 15.1833 5.55 15.75C5.55 16.3167 5.70833 16.7667 6.025 17.1C6.34167 17.4167 6.75833 17.575 7.275 17.575C7.79167 17.575 8.34167 17.375 8.925 16.975C9.50833 16.5583 9.98333 15.975 10.35 15.225C10.5833 13.875 11.0417 11.7417 11.725 8.825L10.225 6.825C11.9083 5.60833 13.5083 5 15.025 5C15.775 5 16.3083 5.14167 16.625 5.425C16.9583 5.69167 17.125 6.10833 17.125 6.675C17.125 7.225 16.8167 8.81667 16.2 11.45C15.6 14.0833 15.3 15.9583 15.3 17.075C15.3 18.175 15.5583 18.95 16.075 19.4C15.1417 20.2167 14.1583 20.625 13.125 20.625C12.1083 20.625 11.375 20.4 10.925 19.95C10.475 19.5 10.25 18.9083 10.25 18.175L10 18.05C9.45 18.85 8.68333 19.4833 7.7 19.95C6.73333 20.4 5.69167 20.625 4.575 20.625ZM31.5418 6.9C32.4751 6.9 33.2751 7.275 33.9418 8.025C34.6251 8.775 34.9668 9.86667 34.9668 11.3C34.9668 12.7167 34.7168 14.0333 34.2168 15.25C33.7168 16.45 33.0585 17.4333 32.2418 18.2C31.4251 18.9667 30.5001 19.5667 29.4668 20C28.4335 20.4167 27.3751 20.625 26.2918 20.625C24.1085 20.625 22.3835 20.025 21.1168 18.825C19.8501 17.625 19.2168 16.0333 19.2168 14.05C19.2168 11.3667 20.0751 9.19167 21.7918 7.525C23.5251 5.84167 25.7251 5 28.3918 5C28.9918 5 29.5918 5.06667 30.1918 5.2C30.3751 5.75 30.4751 6.375 30.4918 7.075C30.8418 6.95833 31.1918 6.9 31.5418 6.9ZM28.4668 10.375C28.4668 9.90833 28.5751 9.38333 28.7918 8.8C29.0251 8.21667 29.3918 7.75 29.8918 7.4C27.6918 7.86667 26.1751 8.75833 25.3418 10.075C24.6251 11.2083 24.2668 12.375 24.2668 13.575C24.2668 14.775 24.5085 15.7417 24.9918 16.475C25.4918 17.1917 26.1251 17.55 26.8918 17.55C28.5918 17.55 29.7918 16.4417 30.4918 14.225C29.1418 13.3917 28.4668 12.1083 28.4668 10.375ZM39.5629 4.45L38.1629 2.45C40.2462 1.23333 41.8879 0.624999 43.0879 0.624999C43.7712 0.624999 44.2546 0.766666 44.5379 1.05C44.8212 1.31667 44.9629 1.775 44.9629 2.425C44.9629 3.05833 44.8546 3.95 44.6379 5.1C44.4379 6.25 44.1629 7.60833 43.8129 9.175C43.4796 10.7417 43.2379 12 43.0879 12.95L44.6629 11.55C44.8129 11.4167 45.0546 11.2083 45.3879 10.925C45.7379 10.625 45.9796 10.4083 46.1129 10.275C46.2629 10.1417 46.4629 9.95833 46.7129 9.725C46.9629 9.475 47.1462 9.26667 47.2629 9.1C47.3796 8.93333 47.5129 8.74167 47.6629 8.525C47.8962 8.15833 48.0129 7.75 48.0129 7.3C48.0129 6.83333 47.9462 6.425 47.8129 6.075C48.9962 5.35833 50.1129 5 51.1629 5C51.8629 5 52.4212 5.225 52.8379 5.675C53.2546 6.10833 53.4629 6.74167 53.4629 7.575C53.4629 8.40833 53.0796 9.25 52.3129 10.1C51.5629 10.9333 50.6296 11.6667 49.5129 12.3C50.0296 14.0167 50.6962 15.5917 51.5129 17.025C52.3296 18.4583 53.0129 19.3167 53.5629 19.6C52.8962 20.2833 51.8629 20.625 50.4629 20.625C49.4296 20.625 48.5546 20.275 47.8379 19.575C47.1379 18.875 46.5129 17.725 45.9629 16.125L45.3379 14.35L42.7629 15.625C42.7462 15.8083 42.7379 16.0833 42.7379 16.45C42.7379 17.8333 42.9962 18.8167 43.5129 19.4C42.3462 20.2167 41.2879 20.625 40.3379 20.625C39.3879 20.625 38.6879 20.3167 38.2379 19.7C37.8046 19.0667 37.5879 18.2 37.5879 17.1C37.5879 16 37.8962 13.75 38.5129 10.35C39.1296 6.95 39.4796 4.98333 39.5629 4.45Z"/>
<path d="M58.2037 24.975C57.1704 24.975 56.4454 24.7167 56.0287 24.2C55.6287 23.7 55.4287 22.9667 55.4287 22C55.4287 21.05 55.6287 19.125 56.0287 16.225C56.4454 13.325 56.8454 10.85 57.2287 8.8L55.8287 6.8C56.862 6.2 57.7537 5.75 58.5037 5.45C59.2537 5.13333 59.9954 4.975 60.7287 4.975C61.9287 4.975 62.5287 5.76667 62.5287 7.35C62.5287 7.56667 62.4954 8.00833 62.4287 8.675L62.6787 8.8C63.162 7.6 63.862 6.66667 64.7787 6C65.6954 5.31667 66.7704 4.975 68.0037 4.975C69.2537 4.975 70.2454 5.54167 70.9787 6.675C71.712 7.79167 72.0787 9.18333 72.0787 10.85C72.0787 13.0833 71.2954 15.1167 69.7287 16.95C68.962 17.85 67.937 18.5833 66.6537 19.15C65.3704 19.7 63.937 19.975 62.3537 19.975C61.8704 19.975 61.237 19.9333 60.4537 19.85C60.4037 20.4333 60.3787 20.975 60.3787 21.475C60.3787 22.5417 60.637 23.3 61.1537 23.75C60.2204 24.5667 59.237 24.975 58.2037 24.975ZM61.4787 14.625L60.9037 17.525C62.9204 17.475 64.5287 16.8167 65.7287 15.55C66.9454 14.2667 67.5537 12.8667 67.5537 11.35C67.5537 10.5667 67.3954 9.94167 67.0787 9.475C66.7787 8.99167 66.337 8.75 65.7537 8.75C63.687 8.75 62.262 10.7083 61.4787 14.625ZM82.8693 23.375C82.8693 22.875 82.9777 22 83.1943 20.75C83.4277 19.5 83.5777 18.65 83.6443 18.2L83.3943 18.075C82.7777 18.8917 82.0527 19.525 81.2193 19.975C80.386 20.4083 79.5527 20.625 78.7193 20.625C77.436 20.625 76.361 20.125 75.4943 19.125C74.6277 18.1083 74.1943 16.65 74.1943 14.75C74.1943 12.2333 74.911 10.0167 76.3443 8.1C77.0443 7.16667 77.9693 6.41667 79.1193 5.85C80.286 5.28333 81.511 5 82.7943 5C84.0943 5 85.2693 5.28333 86.3193 5.85C86.936 5.7 87.5693 5.625 88.2193 5.625C89.7193 5.625 90.4693 6.44167 90.4693 8.075C90.4693 8.34167 90.2943 9.20833 89.9443 10.675C88.9277 15.075 88.4193 18.5667 88.4193 21.15L89.6693 23.15C88.036 24.3667 86.4943 24.975 85.0443 24.975C84.2777 24.975 83.7193 24.8333 83.3693 24.55C83.036 24.2667 82.8693 23.875 82.8693 23.375ZM81.2693 16.875C82.3527 16.875 83.2777 16.325 84.0443 15.225C84.4277 12.6917 84.8443 10.1167 85.2943 7.5C84.8443 7.4 84.436 7.35 84.0693 7.35C82.9527 7.35 81.9943 7.66667 81.1943 8.3C79.6777 9.45 78.9193 11.1 78.9193 13.25C78.9193 14.2667 79.1277 15.125 79.5443 15.825C79.961 16.525 80.536 16.875 81.2693 16.875Z"/>
</mask>
<path d="M4.575 20.625C3.10833 20.625 2.08333 20.2667 1.5 19.55C0.916667 18.8333 0.625 17.9333 0.625 16.85C0.625 15.75 0.808333 14.25 1.175 12.35C1.54167 10.45 1.725 9.075 1.725 8.225C1.725 7.375 1.55 6.70833 1.2 6.225C2.75 5.40833 4.05833 5 5.125 5C5.80833 5 6.3 5.14167 6.6 5.425C6.91667 5.69167 7.075 6.13333 7.075 6.75C7.075 7.36667 6.81667 8.88333 6.3 11.3C5.8 13.7 5.55 15.1833 5.55 15.75C5.55 16.3167 5.70833 16.7667 6.025 17.1C6.34167 17.4167 6.75833 17.575 7.275 17.575C7.79167 17.575 8.34167 17.375 8.925 16.975C9.50833 16.5583 9.98333 15.975 10.35 15.225C10.5833 13.875 11.0417 11.7417 11.725 8.825L10.225 6.825C11.9083 5.60833 13.5083 5 15.025 5C15.775 5 16.3083 5.14167 16.625 5.425C16.9583 5.69167 17.125 6.10833 17.125 6.675C17.125 7.225 16.8167 8.81667 16.2 11.45C15.6 14.0833 15.3 15.9583 15.3 17.075C15.3 18.175 15.5583 18.95 16.075 19.4C15.1417 20.2167 14.1583 20.625 13.125 20.625C12.1083 20.625 11.375 20.4 10.925 19.95C10.475 19.5 10.25 18.9083 10.25 18.175L10 18.05C9.45 18.85 8.68333 19.4833 7.7 19.95C6.73333 20.4 5.69167 20.625 4.575 20.625ZM31.5418 6.9C32.4751 6.9 33.2751 7.275 33.9418 8.025C34.6251 8.775 34.9668 9.86667 34.9668 11.3C34.9668 12.7167 34.7168 14.0333 34.2168 15.25C33.7168 16.45 33.0585 17.4333 32.2418 18.2C31.4251 18.9667 30.5001 19.5667 29.4668 20C28.4335 20.4167 27.3751 20.625 26.2918 20.625C24.1085 20.625 22.3835 20.025 21.1168 18.825C19.8501 17.625 19.2168 16.0333 19.2168 14.05C19.2168 11.3667 20.0751 9.19167 21.7918 7.525C23.5251 5.84167 25.7251 5 28.3918 5C28.9918 5 29.5918 5.06667 30.1918 5.2C30.3751 5.75 30.4751 6.375 30.4918 7.075C30.8418 6.95833 31.1918 6.9 31.5418 6.9ZM28.4668 10.375C28.4668 9.90833 28.5751 9.38333 28.7918 8.8C29.0251 8.21667 29.3918 7.75 29.8918 7.4C27.6918 7.86667 26.1751 8.75833 25.3418 10.075C24.6251 11.2083 24.2668 12.375 24.2668 13.575C24.2668 14.775 24.5085 15.7417 24.9918 16.475C25.4918 17.1917 26.1251 17.55 26.8918 17.55C28.5918 17.55 29.7918 16.4417 30.4918 14.225C29.1418 13.3917 28.4668 12.1083 28.4668 10.375ZM39.5629 4.45L38.1629 2.45C40.2462 1.23333 41.8879 0.624999 43.0879 0.624999C43.7712 0.624999 44.2546 0.766666 44.5379 1.05C44.8212 1.31667 44.9629 1.775 44.9629 2.425C44.9629 3.05833 44.8546 3.95 44.6379 5.1C44.4379 6.25 44.1629 7.60833 43.8129 9.175C43.4796 10.7417 43.2379 12 43.0879 12.95L44.6629 11.55C44.8129 11.4167 45.0546 11.2083 45.3879 10.925C45.7379 10.625 45.9796 10.4083 46.1129 10.275C46.2629 10.1417 46.4629 9.95833 46.7129 9.725C46.9629 9.475 47.1462 9.26667 47.2629 9.1C47.3796 8.93333 47.5129 8.74167 47.6629 8.525C47.8962 8.15833 48.0129 7.75 48.0129 7.3C48.0129 6.83333 47.9462 6.425 47.8129 6.075C48.9962 5.35833 50.1129 5 51.1629 5C51.8629 5 52.4212 5.225 52.8379 5.675C53.2546 6.10833 53.4629 6.74167 53.4629 7.575C53.4629 8.40833 53.0796 9.25 52.3129 10.1C51.5629 10.9333 50.6296 11.6667 49.5129 12.3C50.0296 14.0167 50.6962 15.5917 51.5129 17.025C52.3296 18.4583 53.0129 19.3167 53.5629 19.6C52.8962 20.2833 51.8629 20.625 50.4629 20.625C49.4296 20.625 48.5546 20.275 47.8379 19.575C47.1379 18.875 46.5129 17.725 45.9629 16.125L45.3379 14.35L42.7629 15.625C42.7462 15.8083 42.7379 16.0833 42.7379 16.45C42.7379 17.8333 42.9962 18.8167 43.5129 19.4C42.3462 20.2167 41.2879 20.625 40.3379 20.625C39.3879 20.625 38.6879 20.3167 38.2379 19.7C37.8046 19.0667 37.5879 18.2 37.5879 17.1C37.5879 16 37.8962 13.75 38.5129 10.35C39.1296 6.95 39.4796 4.98333 39.5629 4.45Z" fill="#002A69"/>
<path d="M58.2037 24.975C57.1704 24.975 56.4454 24.7167 56.0287 24.2C55.6287 23.7 55.4287 22.9667 55.4287 22C55.4287 21.05 55.6287 19.125 56.0287 16.225C56.4454 13.325 56.8454 10.85 57.2287 8.8L55.8287 6.8C56.862 6.2 57.7537 5.75 58.5037 5.45C59.2537 5.13333 59.9954 4.975 60.7287 4.975C61.9287 4.975 62.5287 5.76667 62.5287 7.35C62.5287 7.56667 62.4954 8.00833 62.4287 8.675L62.6787 8.8C63.162 7.6 63.862 6.66667 64.7787 6C65.6954 5.31667 66.7704 4.975 68.0037 4.975C69.2537 4.975 70.2454 5.54167 70.9787 6.675C71.712 7.79167 72.0787 9.18333 72.0787 10.85C72.0787 13.0833 71.2954 15.1167 69.7287 16.95C68.962 17.85 67.937 18.5833 66.6537 19.15C65.3704 19.7 63.937 19.975 62.3537 19.975C61.8704 19.975 61.237 19.9333 60.4537 19.85C60.4037 20.4333 60.3787 20.975 60.3787 21.475C60.3787 22.5417 60.637 23.3 61.1537 23.75C60.2204 24.5667 59.237 24.975 58.2037 24.975ZM61.4787 14.625L60.9037 17.525C62.9204 17.475 64.5287 16.8167 65.7287 15.55C66.9454 14.2667 67.5537 12.8667 67.5537 11.35C67.5537 10.5667 67.3954 9.94167 67.0787 9.475C66.7787 8.99167 66.337 8.75 65.7537 8.75C63.687 8.75 62.262 10.7083 61.4787 14.625ZM82.8693 23.375C82.8693 22.875 82.9777 22 83.1943 20.75C83.4277 19.5 83.5777 18.65 83.6443 18.2L83.3943 18.075C82.7777 18.8917 82.0527 19.525 81.2193 19.975C80.386 20.4083 79.5527 20.625 78.7193 20.625C77.436 20.625 76.361 20.125 75.4943 19.125C74.6277 18.1083 74.1943 16.65 74.1943 14.75C74.1943 12.2333 74.911 10.0167 76.3443 8.1C77.0443 7.16667 77.9693 6.41667 79.1193 5.85C80.286 5.28333 81.511 5 82.7943 5C84.0943 5 85.2693 5.28333 86.3193 5.85C86.936 5.7 87.5693 5.625 88.2193 5.625C89.7193 5.625 90.4693 6.44167 90.4693 8.075C90.4693 8.34167 90.2943 9.20833 89.9443 10.675C88.9277 15.075 88.4193 18.5667 88.4193 21.15L89.6693 23.15C88.036 24.3667 86.4943 24.975 85.0443 24.975C84.2777 24.975 83.7193 24.8333 83.3693 24.55C83.036 24.2667 82.8693 23.875 82.8693 23.375ZM81.2693 16.875C82.3527 16.875 83.2777 16.325 84.0443 15.225C84.4277 12.6917 84.8443 10.1167 85.2943 7.5C84.8443 7.4 84.436 7.35 84.0693 7.35C82.9527 7.35 81.9943 7.66667 81.1943 8.3C79.6777 9.45 78.9193 11.1 78.9193 13.25C78.9193 14.2667 79.1277 15.125 79.5443 15.825C79.961 16.525 80.536 16.875 81.2693 16.875Z" fill="#70142E"/>
<path d="M1.5 19.55L-0.0511241 20.8125L-0.0511239 20.8125L1.5 19.55ZM1.175 12.35L-0.788767 11.971L-0.788767 11.971L1.175 12.35ZM1.2 6.225L0.267723 4.45558L-1.77228 5.53042L-0.419884 7.39802L1.2 6.225ZM6.6 5.425L5.22675 6.87903L5.26816 6.91813L5.31173 6.95482L6.6 5.425ZM6.3 11.3L4.34417 10.8819L4.34204 10.8921L6.3 11.3ZM6.025 17.1L4.575 18.4775L4.59266 18.4961L4.61079 18.5142L6.025 17.1ZM8.925 16.975L10.0561 18.6245L10.0719 18.6136L10.0875 18.6025L8.925 16.975ZM10.35 15.225L12.1468 16.1034L12.2722 15.8469L12.3208 15.5656L10.35 15.225ZM11.725 8.825L13.6723 9.28122L13.8853 8.37204L13.325 7.625L11.725 8.825ZM10.225 6.825L9.05343 5.20406L7.40363 6.3965L8.625 8.025L10.225 6.825ZM16.625 5.425L15.2914 6.91548L15.3325 6.95227L15.3756 6.98674L16.625 5.425ZM16.2 11.45L14.2526 10.994L14.25 11.0057L16.2 11.45ZM16.075 19.4L17.392 20.9052L19.1162 19.3965L17.3886 17.8918L16.075 19.4ZM10.925 19.95L12.3392 18.5358L12.3392 18.5358L10.925 19.95ZM10.25 18.175H12.25V16.9389L11.1444 16.3861L10.25 18.175ZM10 18.05L10.8944 16.2611L9.33785 15.4829L8.35192 16.9169L10 18.05ZM7.7 19.95L8.54406 21.7632L8.55079 21.76L8.55749 21.7569L7.7 19.95ZM4.575 18.625C3.35736 18.625 3.07731 18.3196 3.05112 18.2875L-0.0511239 20.8125C1.08935 22.2137 2.85931 22.625 4.575 22.625V18.625ZM3.05112 18.2875C2.80652 17.9869 2.625 17.5564 2.625 16.85H-1.375C-1.375 18.3103 -0.973186 19.6797 -0.0511241 20.8125L3.05112 18.2875ZM2.625 16.85C2.625 15.9379 2.78102 14.5828 3.13877 12.729L-0.788767 11.971C-1.16435 13.9172 -1.375 15.5621 -1.375 16.85H2.625ZM3.13877 12.729C3.50696 10.8211 3.725 9.28249 3.725 8.225H-0.275C-0.275 8.86751 -0.423626 10.0789 -0.788767 11.971L3.13877 12.729ZM3.725 8.225C3.725 7.12635 3.50194 5.99386 2.81988 5.05198L-0.419884 7.39802C-0.401937 7.4228 -0.275 7.62365 -0.275 8.225H3.725ZM2.13228 7.99442C3.55846 7.24299 4.52807 7 5.125 7V3C3.5886 3 1.94154 3.57367 0.267723 4.45558L2.13228 7.99442ZM5.125 7C5.22776 7 5.30576 7.00538 5.36216 7.01218C5.41879 7.01901 5.44696 7.02646 5.45251 7.02806C5.46399 7.03137 5.35779 7.00278 5.22675 6.87903L7.97325 3.97097C7.12322 3.16817 6.00401 3 5.125 3V7ZM5.31173 6.95482C5.24351 6.89738 5.1884 6.83387 5.14673 6.77172C5.10582 6.71072 5.08402 6.66032 5.07357 6.63117C5.05501 6.5794 5.075 6.60349 5.075 6.75H9.075C9.075 5.83763 8.84105 4.69752 7.88827 3.89518L5.31173 6.95482ZM5.075 6.75C5.075 6.86974 5.03963 7.25105 4.90965 8.01418C4.7871 8.73364 4.59972 9.68666 4.3442 10.8819L8.2558 11.7181C8.51694 10.4967 8.71707 9.48303 8.85285 8.68582C8.9812 7.93229 9.075 7.24692 9.075 6.75H5.075ZM4.34204 10.8921C4.08962 12.1037 3.89637 13.1025 3.76531 13.8801C3.64245 14.6091 3.55 15.2769 3.55 15.75H7.55C7.55 15.7505 7.55001 15.7426 7.55083 15.7247C7.55164 15.707 7.55309 15.6828 7.55558 15.6511C7.56061 15.587 7.56907 15.5027 7.58217 15.3952C7.60849 15.1794 7.65019 14.8979 7.70969 14.5449C7.82863 13.8391 8.01038 12.8963 8.25796 11.7079L4.34204 10.8921ZM3.55 15.75C3.55 16.7039 3.82733 17.6905 4.575 18.4775L7.475 15.7225C7.49412 15.7426 7.51216 15.7661 7.52734 15.7911C7.5424 15.816 7.55106 15.8364 7.55538 15.8487C7.56385 15.8728 7.55 15.8486 7.55 15.75H3.55ZM4.61079 18.5142C5.36068 19.2641 6.31623 19.575 7.275 19.575V15.575C7.2214 15.575 7.23381 15.5671 7.28544 15.5867C7.31059 15.5962 7.33929 15.6102 7.36854 15.6292C7.39777 15.6481 7.4215 15.6681 7.43921 15.6858L4.61079 18.5142ZM7.275 19.575C8.31956 19.575 9.25939 19.1707 10.0561 18.6245L7.79394 15.3255C7.61338 15.4494 7.4794 15.5135 7.39151 15.5454C7.34853 15.561 7.31838 15.5683 7.30017 15.5718C7.29105 15.5735 7.28462 15.5743 7.28069 15.5746C7.27871 15.5748 7.27728 15.5749 7.27638 15.575C7.27547 15.575 7.27502 15.575 7.275 15.575V19.575ZM10.0875 18.6025C10.9826 17.9631 11.6583 17.1026 12.1468 16.1034L8.55323 14.3466C8.30837 14.8474 8.03406 15.1536 7.76252 15.3475L10.0875 18.6025ZM12.3208 15.5656C12.5434 14.2779 12.99 12.1934 13.6723 9.28122L9.77773 8.36878C9.09335 11.2899 8.62331 13.4721 8.37922 14.8844L12.3208 15.5656ZM13.325 7.625L11.825 5.625L8.625 8.025L10.125 10.025L13.325 7.625ZM11.3966 8.44593C12.8623 7.38652 14.0592 7 15.025 7V3C12.9575 3 10.9543 3.83014 9.05343 5.20406L11.3966 8.44593ZM15.025 7C15.2842 7 15.4226 7.02556 15.4741 7.03922C15.5241 7.05252 15.4273 7.03702 15.2914 6.91548L17.9586 3.93452C17.0824 3.15057 15.9256 3 15.025 3V7ZM15.3756 6.98674C15.3223 6.94407 15.2723 6.89236 15.2297 6.83414C15.1874 6.77638 15.1599 6.72249 15.143 6.68028C15.1106 6.59928 15.125 6.58187 15.125 6.675H19.125C19.125 5.71441 18.8271 4.62541 17.8744 3.86326L15.3756 6.98674ZM15.125 6.675C15.125 6.66491 15.1229 6.75268 15.0876 6.99781C15.0553 7.22214 15.0039 7.52072 14.9303 7.90089C14.7831 8.6603 14.5585 9.68827 14.2527 10.994L18.1473 11.906C18.4582 10.5784 18.696 9.49386 18.8572 8.66161C19.0057 7.8955 19.125 7.17312 19.125 6.675H15.125ZM14.25 11.0057C13.6503 13.6375 13.3 15.7097 13.3 17.075H17.3C17.3 16.207 17.5497 14.5292 18.15 11.8943L14.25 11.0057ZM13.3 17.075C13.3 18.4094 13.6032 19.8994 14.7614 20.9082L17.3886 17.8918C17.4472 17.9429 17.4292 17.963 17.3911 17.8488C17.3489 17.7221 17.3 17.4795 17.3 17.075H13.3ZM14.758 17.8948C14.1127 18.4595 13.581 18.625 13.125 18.625V22.625C14.7357 22.625 16.1707 21.9738 17.392 20.9052L14.758 17.8948ZM13.125 18.625C12.755 18.625 12.5254 18.583 12.3991 18.5442C12.2812 18.508 12.2903 18.4868 12.3392 18.5358L9.51079 21.3642C10.5072 22.3607 11.8831 22.625 13.125 22.625V18.625ZM12.3392 18.5358C12.322 18.5185 12.25 18.4655 12.25 18.175H8.25C8.25 19.3512 8.62803 20.4815 9.51079 21.3642L12.3392 18.5358ZM11.1444 16.3861L10.8944 16.2611L9.10557 19.8389L9.35557 19.9639L11.1444 16.3861ZM8.35192 16.9169C8.02485 17.3927 7.54698 17.8088 6.84251 18.1431L8.55749 21.7569C9.81969 21.1578 10.8752 20.3073 11.6481 19.1831L8.35192 16.9169ZM6.85594 18.1368C6.16615 18.4579 5.41417 18.625 4.575 18.625V22.625C5.96916 22.625 7.30052 22.3421 8.54406 21.7632L6.85594 18.1368ZM33.9418 8.025L32.447 9.35373L32.4551 9.3629L32.4634 9.37198L33.9418 8.025ZM34.2168 15.25L36.063 16.0192L36.0667 16.0102L34.2168 15.25ZM32.2418 18.2L33.6107 19.6581L33.6107 19.6581L32.2418 18.2ZM29.4668 20L30.2147 21.8549L30.2275 21.8497L30.2403 21.8444L29.4668 20ZM21.1168 18.825L22.4923 17.3731L22.4923 17.3731L21.1168 18.825ZM21.7918 7.525L23.185 8.95996L23.1852 8.95976L21.7918 7.525ZM30.1918 5.2L32.0892 4.56754L31.7311 3.49327L30.6257 3.24763L30.1918 5.2ZM30.4918 7.075L28.4924 7.1226L28.5568 9.82819L31.1243 8.97237L30.4918 7.075ZM28.7918 8.8L26.9348 8.05722L26.9256 8.08031L26.9169 8.10363L28.7918 8.8ZM29.8918 7.4L31.0387 9.03846L29.4768 5.44353L29.8918 7.4ZM25.3418 10.075L23.6518 9.0054L23.6514 9.00608L25.3418 10.075ZM24.9918 16.475L23.3219 17.5756L23.3364 17.5977L23.3515 17.6194L24.9918 16.475ZM30.4918 14.225L32.399 14.8273L32.8681 13.3415L31.5423 12.5231L30.4918 14.225ZM31.5418 8.9C31.8572 8.9 32.1277 8.99454 32.447 9.35373L35.4366 6.69627C34.4226 5.55546 33.0931 4.9 31.5418 4.9V8.9ZM32.4634 9.37198C32.6947 9.62587 32.9668 10.1598 32.9668 11.3H36.9668C36.9668 9.57352 36.5555 7.92413 35.4202 6.67802L32.4634 9.37198ZM32.9668 11.3C32.9668 12.4762 32.7604 13.5324 32.3669 14.4898L36.0667 16.0102C36.6732 14.5343 36.9668 12.9572 36.9668 11.3H32.9668ZM32.3706 14.4808C31.962 15.4616 31.4531 16.1972 30.8729 16.7419L33.6107 19.6581C34.6638 18.6695 35.4716 17.4384 36.063 16.0192L32.3706 14.4808ZM30.8729 16.7419C30.2302 17.3453 29.5068 17.8145 28.6933 18.1556L30.2403 21.8444C31.4934 21.3189 32.6201 20.5881 33.6107 19.6581L30.8729 16.7419ZM28.7189 18.1451C27.9163 18.4687 27.1115 18.625 26.2918 18.625V22.625C27.6388 22.625 28.9506 22.3646 30.2147 21.8549L28.7189 18.1451ZM26.2918 18.625C24.4855 18.625 23.3 18.1383 22.4923 17.3731L19.7413 20.2769C21.4669 21.9117 23.7314 22.625 26.2918 22.625V18.625ZM22.4923 17.3731C21.6804 16.604 21.2168 15.5665 21.2168 14.05H17.2168C17.2168 16.5001 18.0198 18.646 19.7413 20.2769L22.4923 17.3731ZM21.2168 14.05C21.2168 11.8352 21.9051 10.2026 23.185 8.95996L20.3986 6.09004C18.2452 8.18077 17.2168 10.8981 17.2168 14.05H21.2168ZM23.1852 8.95976C24.505 7.67799 26.1865 7 28.3918 7V3C25.2638 3 22.5453 4.00535 20.3984 6.09024L23.1852 8.95976ZM28.3918 7C28.8423 7 29.2969 7.04992 29.7579 7.15237L30.6257 3.24763C29.8867 3.08341 29.1412 3 28.3918 3V7ZM28.2944 5.83246C28.4034 6.15924 28.4795 6.58169 28.4924 7.1226L32.4912 7.02739C32.4708 6.16831 32.3469 5.34076 32.0892 4.56754L28.2944 5.83246ZM31.1243 8.97237C31.2814 8.91998 31.4182 8.9 31.5418 8.9V4.9C30.9654 4.9 30.4022 4.99669 29.8593 5.17763L31.1243 8.97237ZM30.4668 10.375C30.4668 10.2106 30.5068 9.92673 30.6666 9.49637L26.9169 8.10363C26.6435 8.83994 26.4668 9.60603 26.4668 10.375H30.4668ZM30.6488 9.54278C30.7421 9.30948 30.8673 9.15849 31.0387 9.03846L28.7449 5.76154C27.9163 6.34151 27.3082 7.12385 26.9348 8.05722L30.6488 9.54278ZM29.4768 5.44353C26.985 5.9721 24.8806 7.06396 23.6518 9.0054L27.0318 11.1446C27.4697 10.4527 28.3986 9.76124 30.3068 9.35647L29.4768 5.44353ZM23.6514 9.00608C22.757 10.4205 22.2668 11.9532 22.2668 13.575H26.2668C26.2668 12.7968 26.4933 11.9961 27.0322 11.1439L23.6514 9.00608ZM22.2668 13.575C22.2668 15.0272 22.5577 16.4161 23.3219 17.5756L26.6617 15.3744C26.4593 15.0672 26.2668 14.5228 26.2668 13.575H22.2668ZM23.3515 17.6194C24.1651 18.7854 25.3723 19.55 26.8918 19.55V15.55C26.8572 15.55 26.8411 15.5461 26.8377 15.5453C26.8349 15.5445 26.8325 15.5439 26.8267 15.5406C26.8174 15.5353 26.7448 15.4923 26.6321 15.3306L23.3515 17.6194ZM26.8918 19.55C28.2222 19.55 29.438 19.0984 30.4238 18.188C31.3652 17.3185 31.986 16.135 32.399 14.8273L28.5846 13.6227C28.2976 14.5316 27.9684 15.0107 27.7098 15.2495C27.4955 15.4474 27.2614 15.55 26.8918 15.55V19.55ZM31.5423 12.5231C30.8452 12.0928 30.4668 11.4918 30.4668 10.375H26.4668C26.4668 12.7249 27.4384 14.6905 29.4413 15.9269L31.5423 12.5231ZM39.5629 4.45L41.5389 4.75875L41.6633 3.96294L41.2014 3.30307L39.5629 4.45ZM38.1629 2.45L37.1543 0.722943L35.2792 1.81801L36.5244 3.59692L38.1629 2.45ZM44.5379 1.05L43.1237 2.46421L43.1451 2.48564L43.1672 2.5064L44.5379 1.05ZM44.6379 5.1L42.6725 4.7297L42.6699 4.74349L42.6675 4.75732L44.6379 5.1ZM43.8129 9.175L41.861 8.73894L41.8588 8.74885L41.8567 8.75878L43.8129 9.175ZM43.0879 12.95L41.1124 12.6381L40.241 18.1564L44.4166 14.4448L43.0879 12.95ZM44.6629 11.55L43.3342 10.0552L43.3342 10.0552L44.6629 11.55ZM45.3879 10.925L46.6832 12.4489L46.6895 12.4435L45.3879 10.925ZM46.1129 10.275L44.7842 8.78018L44.7402 8.81923L44.6987 8.86079L46.1129 10.275ZM46.7129 9.725L48.0775 11.1871L48.1027 11.1636L48.1271 11.1392L46.7129 9.725ZM47.6629 8.525L49.3073 9.66342L49.3294 9.6315L49.3502 9.59875L47.6629 8.525ZM47.8129 6.075L46.7768 4.36428L45.3501 5.22833L45.9439 6.78699L47.8129 6.075ZM52.8379 5.675L51.3704 7.03381L51.3832 7.04764L51.3962 7.06122L52.8379 5.675ZM52.3129 10.1L50.8278 8.76046L50.8263 8.76207L52.3129 10.1ZM49.5129 12.3L48.5262 10.5603L47.1377 11.3478L47.5978 12.8764L49.5129 12.3ZM51.5129 17.025L53.2506 16.0349L53.2506 16.0349L51.5129 17.025ZM53.5629 19.6L54.9945 20.9966L56.8832 19.0607L54.4788 17.8221L53.5629 19.6ZM47.8379 19.575L46.4237 20.9892L46.432 20.9975L46.4404 21.0058L47.8379 19.575ZM45.9629 16.125L47.8543 15.4748L47.8518 15.4678L47.8494 15.4608L45.9629 16.125ZM45.3379 14.35L47.2244 13.6858L46.4743 11.5556L44.4504 12.5577L45.3379 14.35ZM42.7629 15.625L41.8754 13.8327L40.8724 14.3293L40.7711 15.4439L42.7629 15.625ZM43.5129 19.4L44.6598 21.0385L46.4968 19.7525L45.0101 18.0739L43.5129 19.4ZM38.2379 19.7L36.5873 20.8294L36.6044 20.8544L36.6223 20.8789L38.2379 19.7ZM38.5129 10.35L36.545 9.99308L38.5129 10.35ZM41.2014 3.30307L39.8014 1.30307L36.5244 3.59692L37.9244 5.59692L41.2014 3.30307ZM39.1715 4.17706C41.2007 2.992 42.4504 2.625 43.0879 2.625V-1.375C41.3254 -1.375 39.2918 -0.525336 37.1543 0.722943L39.1715 4.17706ZM43.0879 2.625C43.1908 2.625 43.2676 2.63039 43.3218 2.63698C43.3485 2.64022 43.3682 2.64356 43.3815 2.64622C43.3948 2.64888 43.4008 2.65064 43.4003 2.65051C43.4001 2.65044 43.3689 2.64134 43.3182 2.61327C43.2661 2.58441 43.1964 2.53694 43.1237 2.46421L45.9521 -0.364214C45.103 -1.21328 43.9515 -1.375 43.0879 -1.375V2.625ZM43.1672 2.5064C43.0046 2.35339 42.9536 2.20935 42.9458 2.18436C42.9422 2.17273 42.947 2.18458 42.9525 2.22701C42.9579 2.26919 42.9629 2.33395 42.9629 2.425H46.9629C46.9629 1.57609 46.7931 0.426077 45.9086 -0.406401L43.1672 2.5064ZM42.9629 2.425C42.9629 2.87075 42.882 3.61777 42.6725 4.7297L46.6033 5.4703C46.8272 4.28223 46.9629 3.24592 46.9629 2.425H42.9629ZM42.6675 4.75732C42.4745 5.86695 42.2064 7.19268 41.861 8.73894L45.7648 9.61106C46.1193 8.02398 46.4013 6.63305 46.6083 5.44268L42.6675 4.75732ZM41.8567 8.75878C41.5201 10.3406 41.2703 11.6379 41.1124 12.6381L45.0634 13.2619C45.2055 12.3621 45.439 11.1427 45.7691 9.59121L41.8567 8.75878ZM44.4166 14.4448L45.9916 13.0448L43.3342 10.0552L41.7592 11.4552L44.4166 14.4448ZM45.9916 13.0448C46.1239 12.9272 46.3512 12.7311 46.6832 12.4489L44.0926 9.40112C43.7579 9.6856 43.5019 9.90611 43.3342 10.0552L45.9916 13.0448ZM46.6895 12.4435C47.0389 12.144 47.3336 11.8828 47.5271 11.6892L44.6987 8.86079C44.6256 8.93391 44.4369 9.10596 44.0863 9.40649L46.6895 12.4435ZM47.4416 11.7698C47.6092 11.6209 47.8227 11.425 48.0775 11.1871L45.3483 8.26289C45.1031 8.49168 44.9166 8.66248 44.7842 8.78018L47.4416 11.7698ZM48.1271 11.1392C48.4088 10.8575 48.6865 10.5538 48.9014 10.2469L45.6244 7.95307C45.6059 7.97952 45.517 8.09251 45.2987 8.31079L48.1271 11.1392ZM48.9014 10.2469C49.0205 10.0767 49.1558 9.88215 49.3073 9.66342L46.0185 7.38658C45.8699 7.60118 45.7386 7.78992 45.6244 7.95307L48.9014 10.2469ZM49.3502 9.59875C49.7952 8.89942 50.0129 8.11618 50.0129 7.3H46.0129C46.0129 7.38382 45.9972 7.41725 45.9756 7.45125L49.3502 9.59875ZM50.0129 7.3C50.0129 6.64764 49.9202 5.98866 49.6819 5.36301L45.9439 6.78699C45.9722 6.86134 46.0129 7.01903 46.0129 7.3H50.0129ZM48.849 7.78572C49.8166 7.1997 50.5768 7 51.1629 7V3C49.649 3 48.1759 3.51697 46.7768 4.36428L48.849 7.78572ZM51.1629 7C51.2979 7 51.3529 7.0213 51.3591 7.02379C51.3631 7.02539 51.3625 7.02549 51.3604 7.02407C51.3585 7.02273 51.3618 7.02454 51.3704 7.03381L54.3054 4.31618C53.4551 3.39784 52.3333 3 51.1629 3V7ZM51.3962 7.06122C51.3749 7.03907 51.386 7.03679 51.4068 7.09995C51.4304 7.17182 51.4629 7.31991 51.4629 7.575H55.4629C55.4629 6.42694 55.1736 5.21859 54.2796 4.28878L51.3962 7.06122ZM51.4629 7.575C51.4629 7.75455 51.3876 8.13973 50.8278 8.76046L53.798 11.4395C54.7715 10.3603 55.4629 9.06212 55.4629 7.575H51.4629ZM50.8263 8.76207C50.2394 9.41416 49.4824 10.018 48.5262 10.5603L50.4996 14.0397C51.7767 13.3153 52.8864 12.4525 53.7995 11.4379L50.8263 8.76207ZM47.5978 12.8764C48.1541 14.7249 48.8779 16.4402 49.7752 18.0151L53.2506 16.0349C52.5146 14.7431 51.905 13.3085 51.428 11.7236L47.5978 12.8764ZM49.7752 18.0151C50.2118 18.7815 50.644 19.4504 51.0732 19.9894C51.4755 20.4947 51.9959 21.0425 52.647 21.3779L54.4788 17.8221C54.5799 17.8741 54.4837 17.8511 54.2026 17.4981C53.9484 17.1788 53.6306 16.7019 53.2506 16.0349L49.7752 18.0151ZM52.1313 18.2034C51.9865 18.3518 51.5755 18.625 50.4629 18.625V22.625C52.1502 22.625 53.806 22.2148 54.9945 20.9966L52.1313 18.2034ZM50.4629 18.625C49.9335 18.625 49.5655 18.4667 49.2354 18.1442L46.4404 21.0058C47.5436 22.0833 48.9256 22.625 50.4629 22.625V18.625ZM49.2521 18.1608C48.8688 17.7775 48.3661 16.9639 47.8543 15.4748L44.0715 16.7752C44.6596 18.4861 45.407 19.9725 46.4237 20.9892L49.2521 18.1608ZM47.8494 15.4608L47.2244 13.6858L43.4514 15.0142L44.0764 16.7892L47.8494 15.4608ZM44.4504 12.5577L41.8754 13.8327L43.6504 17.4173L46.2254 16.1423L44.4504 12.5577ZM40.7711 15.4439C40.7459 15.7208 40.7379 16.0697 40.7379 16.45H44.7379C44.7379 16.097 44.7465 15.8959 44.7547 15.8061L40.7711 15.4439ZM40.7379 16.45C40.7379 17.9797 41.0037 19.5834 42.0157 20.7261L45.0101 18.0739C45.013 18.0772 44.9389 17.9944 44.866 17.7168C44.7929 17.4384 44.7379 17.0273 44.7379 16.45H40.7379ZM42.366 17.7615C41.3772 18.4537 40.7194 18.625 40.3379 18.625V22.625C41.8564 22.625 43.3152 21.9797 44.6598 21.0385L42.366 17.7615ZM40.3379 18.625C40.0753 18.625 39.949 18.5821 39.9066 18.5634C39.8784 18.551 39.8703 18.5442 39.8535 18.5211L36.6223 20.8789C37.541 22.1378 38.9235 22.625 40.3379 22.625V18.625ZM39.8885 18.5706C39.7618 18.3854 39.5879 17.9642 39.5879 17.1H35.5879C35.5879 18.4358 35.8473 19.7479 36.5873 20.8294L39.8885 18.5706ZM39.5879 17.1C39.5879 16.2119 39.8575 14.1432 40.4808 10.7069L36.545 9.99308C35.9349 13.3568 35.5879 15.7881 35.5879 17.1H39.5879ZM40.4808 10.7069C41.0946 7.32282 41.4507 5.32309 41.5389 4.75875L37.5869 4.14125C37.5084 4.64358 37.1645 6.57718 36.545 9.99308L40.4808 10.7069ZM56.0287 24.2L54.467 25.4494L54.4719 25.4555L56.0287 24.2ZM56.0287 16.225L54.049 15.9406L54.0475 15.9517L56.0287 16.225ZM57.2287 8.8L59.1946 9.16761L59.3491 8.34154L58.8672 7.65307L57.2287 8.8ZM55.8287 6.8L54.8244 5.07042L52.9419 6.16353L54.1902 7.94692L55.8287 6.8ZM58.5037 5.45L59.2465 7.30695L59.2641 7.29989L59.2817 7.2925L58.5037 5.45ZM62.4287 8.675L60.4386 8.47599L60.3015 9.84746L61.5343 10.4639L62.4287 8.675ZM62.6787 8.8L61.7843 10.5889L63.7238 11.5586L64.5339 9.54722L62.6787 8.8ZM64.7787 6L65.9551 7.61747L65.9646 7.61054L65.974 7.60349L64.7787 6ZM70.9787 6.675L69.2995 7.76153L69.307 7.77286L70.9787 6.675ZM69.7287 16.95L68.2082 15.6507L68.2062 15.6531L69.7287 16.95ZM66.6537 19.15L67.4415 20.9883L67.4516 20.984L67.4616 20.9796L66.6537 19.15ZM60.4537 19.85L60.6653 17.8612L58.6354 17.6453L58.461 19.6792L60.4537 19.85ZM61.1537 23.75L62.4707 25.2552L64.1949 23.7465L62.4673 22.2418L61.1537 23.75ZM61.4787 14.625L59.5175 14.2328L59.5169 14.236L61.4787 14.625ZM60.9037 17.525L58.9419 17.136L58.4561 19.5863L60.9533 19.5244L60.9037 17.525ZM65.7287 15.55L64.2773 14.174L64.2768 14.1745L65.7287 15.55ZM67.0787 9.475L65.3794 10.5297L65.4009 10.5643L65.4238 10.598L67.0787 9.475ZM58.2037 22.975C57.8424 22.975 57.6436 22.9284 57.5563 22.8973C57.4849 22.8718 57.5274 22.8724 57.5855 22.9445L54.4719 25.4555C55.4396 26.6554 56.905 26.975 58.2037 26.975V22.975ZM57.5904 22.9506C57.5869 22.9461 57.4287 22.7337 57.4287 22H53.4287C53.4287 23.1996 53.6705 24.4539 54.467 25.4494L57.5904 22.9506ZM57.4287 22C57.4287 21.2111 57.6064 19.424 58.01 16.4983L54.0475 15.9517C53.651 18.826 53.4287 20.8889 53.4287 22H57.4287ZM58.0084 16.5094C58.4225 13.6271 58.8181 11.1815 59.1946 9.16761L55.2628 8.43239C54.8727 10.5185 54.4682 13.0229 54.049 15.9406L58.0084 16.5094ZM58.8672 7.65307L57.4672 5.65308L54.1902 7.94692L55.5902 9.94692L58.8672 7.65307ZM56.833 8.52958C57.8181 7.95758 58.6182 7.55826 59.2465 7.30695L57.7609 3.59305C56.8892 3.94174 55.906 4.44242 54.8244 5.07042L56.833 8.52958ZM59.2817 7.2925C59.8126 7.0683 60.2906 6.975 60.7287 6.975V2.975C59.7001 2.975 58.6948 3.19836 57.7258 3.6075L59.2817 7.2925ZM60.7287 6.975C60.8112 6.975 60.7893 6.9886 60.711 6.95419C60.621 6.91462 60.5382 6.84726 60.4848 6.77679C60.4397 6.7173 60.453 6.70518 60.4771 6.80081C60.5019 6.89881 60.5287 7.07396 60.5287 7.35H64.5287C64.5287 6.36271 64.3516 5.25656 63.6727 4.36071C62.9144 3.36025 61.8089 2.975 60.7287 2.975V6.975ZM60.5287 7.35C60.5287 7.44954 60.5072 7.79042 60.4386 8.47599L64.4188 8.87401C64.4836 8.22625 64.5287 7.68379 64.5287 7.35H60.5287ZM61.5343 10.4639L61.7843 10.5889L63.5731 7.01114L63.3231 6.88614L61.5343 10.4639ZM64.5339 9.54722C64.8973 8.64486 65.3829 8.03357 65.9551 7.61747L63.6024 4.38253C62.3412 5.29976 61.4268 6.55513 60.8235 8.05278L64.5339 9.54722ZM65.974 7.60349C66.5176 7.19829 67.1652 6.975 68.0037 6.975V2.975C66.3756 2.975 64.8732 3.43504 63.5834 4.39651L65.974 7.60349ZM68.0037 6.975C68.5131 6.975 68.8997 7.14346 69.2996 7.7615L72.6579 5.5885C71.5911 3.93987 69.9944 2.975 68.0037 2.975V6.975ZM69.307 7.77286C69.7786 8.49106 70.0787 9.47681 70.0787 10.85H74.0787C74.0787 8.88986 73.6455 7.09228 72.6505 5.57714L69.307 7.77286ZM70.0787 10.85C70.0787 12.5675 69.4921 14.1483 68.2082 15.6507L71.2492 18.2493C73.0987 16.085 74.0787 13.5992 74.0787 10.85H70.0787ZM68.2062 15.6531C67.6678 16.2852 66.9048 16.8528 65.8458 17.3204L67.4616 20.9796C68.9693 20.3138 70.2563 19.4148 71.2512 18.2469L68.2062 15.6531ZM65.8659 17.3117C64.8627 17.7416 63.7024 17.975 62.3537 17.975V21.975C64.1717 21.975 65.878 21.6584 67.4415 20.9883L65.8659 17.3117ZM62.3537 17.975C61.9709 17.975 61.4161 17.9411 60.6653 17.8612L60.2421 21.8388C61.058 21.9256 61.7698 21.975 62.3537 21.975V17.975ZM58.461 19.6792C58.4069 20.31 58.3787 20.9094 58.3787 21.475H62.3787C62.3787 21.0406 62.4005 20.5566 62.4464 20.0208L58.461 19.6792ZM58.3787 21.475C58.3787 22.7996 58.6931 24.2591 59.8401 25.2582L62.4673 22.2418C62.5169 22.2851 62.5005 22.3012 62.4656 22.1988C62.4263 22.0833 62.3787 21.8571 62.3787 21.475H58.3787ZM59.8367 22.2448C59.1914 22.8095 58.6597 22.975 58.2037 22.975V26.975C59.8144 26.975 61.2494 26.3238 62.4707 25.2552L59.8367 22.2448ZM59.5169 14.236L58.9419 17.136L62.8655 17.914L63.4405 15.014L59.5169 14.236ZM60.9533 19.5244C63.4118 19.4634 65.5572 18.6391 67.1806 16.9255L64.2768 14.1745C63.5002 14.9942 62.429 15.4866 60.8541 15.5256L60.9533 19.5244ZM67.1801 16.926C68.6864 15.3372 69.5537 13.463 69.5537 11.35H65.5537C65.5537 12.2704 65.2043 13.1961 64.2773 14.174L67.1801 16.926ZM69.5537 11.35C69.5537 10.317 69.3471 9.25597 68.7337 8.352L65.4238 10.598C65.4437 10.6274 65.5537 10.8164 65.5537 11.35H69.5537ZM68.778 8.42027C68.102 7.33118 67.0074 6.75 65.7537 6.75V10.75C65.7635 10.75 65.6797 10.7499 65.5624 10.6858C65.443 10.6204 65.3873 10.5424 65.3794 10.5297L68.778 8.42027ZM65.7537 6.75C63.965 6.75 62.533 7.64684 61.5178 9.042C60.5597 10.3587 59.9336 12.1524 59.5176 14.2328L63.4399 15.0172C63.8071 13.181 64.2852 12.0371 64.7521 11.3955C65.1619 10.8323 65.4758 10.75 65.7537 10.75V6.75ZM83.1943 20.75L81.2283 20.383L81.2259 20.3957L81.2237 20.4084L83.1943 20.75ZM83.6443 18.2L85.6227 18.4931L85.8352 17.0593L84.5388 16.4111L83.6443 18.2ZM83.3943 18.075L84.2888 16.2861L82.8008 15.5421L81.7983 16.8698L83.3943 18.075ZM81.2193 19.975L82.142 21.7494L82.1559 21.7422L82.1696 21.7348L81.2193 19.975ZM75.4943 19.125L73.9723 20.4225L73.9776 20.4287L73.983 20.4349L75.4943 19.125ZM76.3443 8.1L74.7443 6.9L74.7427 6.90223L76.3443 8.1ZM79.1193 5.85L78.2455 4.05095L78.2353 4.05598L79.1193 5.85ZM86.3193 5.85L85.3695 7.61004L86.0456 7.97491L86.792 7.79333L86.3193 5.85ZM89.9443 10.675L87.999 10.2108L87.9973 10.2177L87.9957 10.2247L89.9443 10.675ZM88.4193 21.15H86.4193V21.7236L86.7233 22.21L88.4193 21.15ZM89.6693 23.15L90.8641 24.7539L92.3422 23.6529L91.3653 22.09L89.6693 23.15ZM83.3693 24.55L82.074 26.0739L82.0923 26.0894L82.1109 26.1045L83.3693 24.55ZM84.0443 15.225L85.6851 16.3686L85.952 15.9857L86.0218 15.5242L84.0443 15.225ZM85.2943 7.5L87.2654 7.83897L87.5884 5.961L85.7282 5.54763L85.2943 7.5ZM81.1943 8.3L82.4027 9.89367L82.4194 9.88105L82.4357 9.86809L81.1943 8.3ZM79.5443 15.825L77.8258 16.848L77.8258 16.848L79.5443 15.825ZM84.8693 23.375C84.8693 23.0678 84.9471 22.3487 85.165 21.0916L81.2237 20.4084C81.0083 21.6513 80.8693 22.6822 80.8693 23.375H84.8693ZM85.1604 21.117C85.3929 19.8712 85.5498 18.9857 85.6227 18.4931L81.6659 17.9069C81.6056 18.3143 81.4624 19.1288 81.2283 20.383L85.1604 21.117ZM84.5388 16.4111L84.2888 16.2861L82.4999 19.8639L82.7499 19.9889L84.5388 16.4111ZM81.7983 16.8698C81.3404 17.4761 80.83 17.9123 80.269 18.2152L82.1696 21.7348C83.2754 21.1377 84.2149 20.3072 84.9904 19.2802L81.7983 16.8698ZM80.2966 18.2006C79.7116 18.5048 79.1925 18.625 78.7193 18.625V22.625C79.9128 22.625 81.0604 22.3119 82.142 21.7494L80.2966 18.2006ZM78.7193 18.625C78.0364 18.625 77.506 18.3924 77.0057 17.8151L73.983 20.4349C75.216 21.8576 76.8356 22.625 78.7193 22.625V18.625ZM77.0164 17.8275C76.5661 17.2993 76.1943 16.3724 76.1943 14.75H72.1943C72.1943 16.9276 72.6893 18.9174 73.9723 20.4225L77.0164 17.8275ZM76.1943 14.75C76.1943 12.6414 76.7851 10.8501 77.946 9.29777L74.7427 6.90223C73.0369 9.18325 72.1943 11.8253 72.1943 14.75H76.1943ZM77.9443 9.3C78.4376 8.64233 79.107 8.08569 80.0033 7.64402L78.2353 4.05598C76.8316 4.74764 75.6511 5.691 74.7443 6.9L77.9443 9.3ZM79.9931 7.64902C80.8905 7.21315 81.8171 7 82.7943 7V3C81.205 3 79.6815 3.35351 78.2455 4.05098L79.9931 7.64902ZM82.7943 7C83.7931 7 84.6369 7.21471 85.3695 7.61004L87.2692 4.08995C85.9017 3.35195 84.3955 3 82.7943 3V7ZM86.792 7.79333C87.2502 7.68188 87.7247 7.625 88.2193 7.625V3.625C87.4139 3.625 86.6218 3.71812 85.8466 3.90666L86.792 7.79333ZM88.2193 7.625C88.4182 7.625 88.5063 7.65266 88.5213 7.65812C88.5251 7.65946 88.4807 7.64136 88.4338 7.59031C88.3398 7.48797 88.4693 7.5264 88.4693 8.075H92.4693C92.4693 6.99026 92.2239 5.8037 91.3799 4.88469C90.5063 3.93345 89.3235 3.625 88.2193 3.625V7.625ZM88.4693 8.075C88.4693 7.97824 88.4798 7.95406 88.4599 8.08229C88.4445 8.18206 88.4182 8.32836 88.3777 8.52914C88.2969 8.92922 88.1717 9.48675 87.999 10.2108L91.8897 11.1392C92.0669 10.3966 92.2043 9.78745 92.2985 9.32086C92.3763 8.93561 92.4693 8.44632 92.4693 8.075H88.4693ZM87.9957 10.2247C86.9662 14.6802 86.4193 18.3432 86.4193 21.15H90.4193C90.4193 18.7902 90.8891 15.4698 91.893 11.1253L87.9957 10.2247ZM86.7233 22.21L87.9733 24.21L91.3653 22.09L90.1153 20.09L86.7233 22.21ZM88.4746 21.5461C87.0505 22.6069 85.9205 22.975 85.0443 22.975V26.975C87.0682 26.975 89.0215 26.1264 90.8641 24.7539L88.4746 21.5461ZM85.0443 22.975C84.7758 22.975 84.6179 22.9493 84.5425 22.9302C84.4681 22.9113 84.5245 22.9119 84.6277 22.9955L82.1109 26.1045C82.9924 26.818 84.1124 26.975 85.0443 26.975V22.975ZM84.6646 23.0261C84.7279 23.0799 84.7929 23.1625 84.8346 23.2606C84.8734 23.3518 84.8693 23.4022 84.8693 23.375H80.8693C80.8693 24.3682 81.2269 25.3538 82.074 26.0739L84.6646 23.0261ZM81.2693 18.875C83.1644 18.875 84.6447 17.8613 85.6851 16.3686L82.4035 14.0814C81.9106 14.7887 81.5409 14.875 81.2693 14.875V18.875ZM86.0218 15.5242C86.4031 13.0046 86.8176 10.4429 87.2654 7.83897L83.3233 7.16103C82.8711 9.79045 82.4523 12.3787 82.0668 14.9258L86.0218 15.5242ZM85.7282 5.54763C85.1704 5.42366 84.6136 5.35 84.0693 5.35V9.35C84.2584 9.35 84.5183 9.37633 84.8605 9.45237L85.7282 5.54763ZM84.0693 5.35C82.5473 5.35 81.1402 5.792 79.9529 6.73191L82.4357 9.86809C82.8485 9.54133 83.358 9.35 84.0693 9.35V5.35ZM79.9859 6.70633C77.9011 8.28714 76.9193 10.5669 76.9193 13.25H80.9193C80.9193 11.6331 81.4542 10.6129 82.4027 9.89367L79.9859 6.70633ZM76.9193 13.25C76.9193 14.5382 77.1843 15.7704 77.8258 16.848L81.2629 14.802C81.071 14.4796 80.9193 13.9951 80.9193 13.25H76.9193ZM77.8258 16.848C78.555 18.0731 79.7418 18.875 81.2693 18.875V14.875C81.2462 14.875 81.2475 14.8724 81.2659 14.8773C81.2746 14.8796 81.2851 14.8831 81.2967 14.8881C81.3083 14.893 81.3189 14.8986 81.328 14.9041C81.3473 14.9158 81.3509 14.9221 81.3406 14.9111C81.3292 14.8991 81.3014 14.8667 81.2629 14.802L77.8258 16.848Z" fill="white" mask="url(#path-1-outside-1_26_28)"/>
</svg>
